<svg width="13" height="15" viewBox="0 0 13 15" fill="none" xmlns="http://www.w3.org/2000/svg">
<path d="M12.3175 8.30781C12.2595 8.2497 12.1906 8.2036 12.1147 8.17215C12.0388 8.14069 11.9575 8.12451 11.8753 8.12451C11.7932 8.12451 11.7119 8.14069 11.636 8.17215C11.5601 8.2036 11.4912 8.2497 11.4332 8.30781L6.87535 12.8664V0.624997C6.87535 0.459237 6.8095 0.300265 6.69229 0.183055C6.57508 0.0658445 6.41611 -2.86102e-06 6.25035 -2.86102e-06C6.08459 -2.86102e-06 5.92562 0.0658445 5.80841 0.183055C5.6912 0.300265 5.62535 0.459237 5.62535 0.624997V12.8664L1.06753 8.30781C0.95026 8.19053 0.7912 8.12465 0.625347 8.12465C0.459495 8.12465 0.300435 8.19053 0.18316 8.30781C0.0658846 8.42508 1.2357e-09 8.58414 0 8.75C-1.2357e-09 8.91585 0.0658846 9.07491 0.18316 9.19218L5.80816 14.8172C5.86621 14.8753 5.93514 14.9214 6.01101 14.9528C6.08688 14.9843 6.16821 15.0005 6.25035 15.0005C6.33248 15.0005 6.41381 14.9843 6.48969 14.9528C6.56556 14.9214 6.63449 14.8753 6.69254 14.8172L12.3175 9.19218C12.3756 9.13414 12.4217 9.06521 12.4532 8.98933C12.4847 8.91346 12.5008 8.83213 12.5008 8.75C12.5008 8.66786 12.4847 8.58653 12.4532 8.51066C12.4217 8.43478 12.3756 8.36585 12.3175 8.30781Z" fill="white"/>
</svg>
